HIERARCHY
ROOT Hips
{
	OFFSET 0.00000 0.00000 0.00000
	CHANNELS 6 Xposition Yposition Zposition Zrotation Yrotation Xrotation 
	JOINT LHipJoint
	{
		OFFSET 0 0 0
		CHANNELS 3 Zrotation Yrotation Xrotation
		JOINT LeftHip
		{
			OFFSET 1.62964 -1.40469 0.78906
			CHANNELS 3 Zrotation Yrotation Xrotation
			JOINT LeftKnee
			{
				OFFSET 2.29640 -6.30932 0.00000
				CHANNELS 3 Zrotation Yrotation Xrotation
				JOINT LeftAnkle
				{
					OFFSET 2.29451 -6.30412 0.00000
					CHANNELS 3 Zrotation Yrotation Xrotation
					JOINT LeftToe
					{
						OFFSET 0.03611 -0.09921 1.56387
						CHANNELS 3 Zrotation Yrotation Xrotation
						End Site
						{
							OFFSET 0.00000 -0.00000 0.80291
						}
					}
				}
			}
		}
	}
	JOINT RHipJoint
	{
		OFFSET 0 0 0
		CHANNELS 3 Zrotation Yrotation Xrotation
		JOINT RightHip
		{
			OFFSET -1.73712 -1.40469 0.78906
			CHANNELS 3 Zrotation Yrotation Xrotation
			JOINT RightKnee
			{
				OFFSET -2.28137 -6.26801 0.00000
				CHANNELS 3 Zrotation Yrotation Xrotation
				JOINT RightAnkle
				{
					OFFSET -2.28681 -6.28298 0.00000
					CHANNELS 3 Zrotation Yrotation Xrotation
					JOINT RightToe
					{
						OFFSET -0.15927 -0.43759 1.61103
						CHANNELS 3 Zrotation Yrotation Xrotation
						End Site
						{
							OFFSET -0.00000 -0.00000 0.84630
						}
					}
				}
			}
		}
	}
	JOINT lowerback
	{
		OFFSET 0 0 0
		CHANNELS 3 Zrotation Yrotation Xrotation
		JOINT Chest
		{
			OFFSET -0.04227 2.04338 -0.00225
			CHANNELS 3 Zrotation Yrotation Xrotation
			JOINT Chest2
			{
				OFFSET -0.02148 2.04482 -0.04273
				CHANNELS 3 Zrotation Yrotation Xrotation
				JOINT lowerneck
				{
					OFFSET 0 0 0
					CHANNELS 3 Zrotation Yrotation Xrotation
					JOINT Neck
					{
						OFFSET 0.09180 1.44629 0.19359
						CHANNELS 3 Zrotation Yrotation Xrotation
						JOINT Head
						{
							OFFSET 0.00887 1.40645 0.14750
							CHANNELS 3 Zrotation Yrotation Xrotation
							End Site
							{
								OFFSET -0.00669 1.50671 0.03707
							}
						}
					}
				}
				JOINT LeftCollar
				{
					OFFSET 0 0 0
					CHANNELS 3 Zrotation Yrotation Xrotation
					JOINT LeftShoulder
					{
						OFFSET 2.17674 1.86763 -0.06520
CHANNELS 3 Zrotation Xrotation Yrotation
						JOINT LeftElbow
						{
OFFSET 0 -4.657760 0.000000
CHANNELS 3 Zrotation Xrotation Yrotation
							JOINT LeftWrist
							{
OFFSET 0 -3.555390 0.000000
CHANNELS 3 Zrotation Xrotation Yrotation
								JOINT lhand
								{
									OFFSET 0 0 0
CHANNELS 3 Zrotation Xrotation Yrotation
									JOINT LFingers
									{
OFFSET 0 -0.707260 0.000000
CHANNELS 3 Zrotation Xrotation Yrotation
										End Site
										{
OFFSET 0 -0.570220 0.000000
										}
									}
								}
								JOINT LThumb
								{
OFFSET 0 0.000000 0.000000
CHANNELS 3 Zrotation Xrotation Yrotation
									End Site
									{
OFFSET 0 -0.578920 0.578920
									}
								}
							}
						}
					}
				}
				JOINT RightCollar
				{
					OFFSET 0 0 0
					CHANNELS 3 Zrotation Yrotation Xrotation
					JOINT RightShoulder
					{
						OFFSET -2.80694 1.55459 -0.32496
CHANNELS 3 Zrotation Xrotation Yrotation
						JOINT RightElbow
						{
OFFSET 0 -4.719250 -0.000000
CHANNELS 3 Zrotation Xrotation Yrotation
							JOINT RightWrist
							{
OFFSET 0 -3.569900 0.000000
CHANNELS 3 Zrotation Xrotation Yrotation
								JOINT rhand
								{
									OFFSET 0 0 0
CHANNELS 3 Zrotation Xrotation Yrotation
									JOINT RFingers
									{
OFFSET 0 -0.507760 0.000000
CHANNELS 3 Zrotation Xrotation Yrotation
										End Site
										{
OFFSET 0 -0.409370 0.000000
										}
									}
								}
								JOINT RThumb
								{
OFFSET 0 0.000000 0.000000
CHANNELS 3 Zrotation Xrotation Yrotation
									End Site
									{
OFFSET 0 -0.415620 0.415620
									}
								}
							}
						}
					}
				}
			}
		}
	}
}
MOTION
Frames: 8
Frame Time: 0.008333333333333333
16.277500 16.378300 20.776600 173.763000 -2.574800 -154.559000 0.000000 0.000000 0.000000 -25.814200 -18.592700 -18.357100 0.264300 3.307200 9.135200 0.063400 -6.224400 -5.891200 2.873900 -10.488100 -30.572100 0.000000 0.000000 0.000000 13.027000 13.407400 -19.586400 -0.141500 -2.423900 6.678800 -0.978100 3.524900 -17.841600 -0.911900 6.084900 -17.031000 -11.924800 -3.098400 -31.457100 -1.365200 -0.290000 -0.675700 4.688700 -1.259000 15.606600 -1.633000 -1.510800 -5.675700 4.441600 -2.079400 -0.057800 1.611700 -1.015200 1.012600 -0.000000 -0.000000 0.000000 5.501200 -1.571900 -18.836500 10.408200 -17.375600 1.594700 25.154700 1.148400 11.703300 0.000000 0.000000 0.000000 -7.125000 0.000000 0.000000 -1.406300 17.091700 -0.931200 -0.000000 -0.000000 0.000000 1.413700 1.555800 4.757800 -14.420300 -23.332400 -2.992600 -12.690900 9.629400 56.686800 0.000000 0.000000 0.000000 7.125000 0.000000 -0.000000 81.686000 76.589500 -67.818600
16.278492 16.378661 20.776961 173.771114 -2.558483 -154.577030 0.000000 0.000000 0.000000 -25.796080 -18.642373 -18.299945 0.264390 3.307921 9.137183 0.066736 -6.178153 -5.940873 2.801149 -10.365856 -30.169759 0.000000 0.000000 0.000000 13.042957 13.414251 -19.588473 -0.142582 -2.433546 6.705394 -0.979993 3.535988 -17.857286 -0.965990 6.257538 -17.533588 -11.922095 -3.106243 -31.441234 -1.352940 -0.305776 -0.681379 4.694740 -1.265220 15.595602 -1.634352 -1.512423 -5.674889 4.429520 -2.081203 -0.005333 1.608094 -1.015020 1.028917 0.000000 0.000000 0.000000 5.432776 -1.630678 -19.103435 10.494293 -17.509022 1.620483 24.925628 0.857034 11.891083 0.000000 0.000000 0.000000 -7.125000 0.000000 0.000000 -1.576954 16.910588 -1.050559 0.000000 0.000000 0.000000 1.388728 1.566618 4.967850 -14.509639 -23.458610 -3.028029 -14.426382 11.274011 58.300129 0.000000 0.000000 0.000000 7.125000 0.000000 0.000000 89.007823 77.107323 -75.763992
16.279082 16.379664 20.776920 173.812953 -2.562241 -154.592651 0.000000 0.000000 0.000000 -25.748168 -18.600824 -18.293298 0.266488 3.320768 9.173134 0.068305 -6.229391 -5.998977 2.796492 -10.358041 -30.144109 0.000000 0.000000 0.000000 13.094406 13.441820 -19.580188 -0.143583 -2.441907 6.728536 -0.983974 3.541777 -17.894011 -0.986354 6.321288 -17.719470 -11.877314 -3.114006 -31.459896 -1.332007 -0.325568 -0.658392 4.686326 -1.272163 15.636397 -1.669029 -1.501438 -5.669661 4.467628 -2.065420 -0.016463 1.626892 -1.007050 1.025240 0.000000 0.000000 0.000000 5.403940 -1.774815 -19.521014 10.545537 -17.588322 1.635987 24.824234 0.288552 12.193053 0.000000 0.000000 0.000000 -7.125000 0.000000 0.000000 -1.665381 16.591841 -1.121095 0.000000 0.000000 0.000000 1.352193 1.463168 5.108842 -14.538592 -23.499461 -3.039609 -16.151185 12.960619 59.675286 0.000000 0.000000 0.000000 7.125000 0.000000 0.000000 85.691115 -47.039695 63.030305
16.280257 16.380886 20.776266 173.889224 -2.624681 -154.642497 0.000000 0.000000 0.000000 -25.652500 -18.542521 -18.262343 0.267705 3.328550 9.194722 0.065852 -6.280821 -5.971602 2.785957 -10.340167 -30.085547 0.000000 0.000000 0.000000 13.216292 13.463124 -19.462702 -0.140559 -2.415872 6.656497 -0.978912 3.469702 -17.856877 -0.979896 6.301231 -17.660859 -11.795949 -3.126127 -31.453769 -1.297399 -0.361985 -0.613782 4.668178 -1.283352 15.696368 -1.725829 -1.469392 -5.710107 4.495054 -2.019723 -0.025532 1.646817 -0.983824 1.029254 0.000000 0.000000 0.000000 5.358895 -1.973666 -19.855833 10.580810 -17.642877 1.646638 24.784435 -0.088269 12.297537 0.000000 0.000000 0.000000 -7.125000 0.000000 0.000000 -1.699197 16.482147 -1.147811 0.000000 0.000000 0.000000 1.324808 1.246508 5.189511 -14.510963 -23.460518 -3.028608 -17.933997 14.617647 60.927742 0.000000 0.000000 0.000000 7.125000 0.000000 0.000000 90.241455 -77.811904 102.691734
16.281367 16.382148 20.775455 173.966087 -2.699266 -154.701997 0.000000 0.000000 0.000000 -25.542985 -18.565624 -18.183224 0.267091 3.324743 9.184101 0.064882 -6.235393 -5.928581 2.697631 -10.187748 -29.587745 0.000000 0.000000 0.000000 13.344899 13.479178 -19.340003 -0.138109 -2.395170 6.599111 -0.978279 3.414820 -17.859395 -0.963580 6.250082 -17.511840 -11.713374 -3.132076 -31.408134 -1.267992 -0.400913 -0.595137 4.643320 -1.293157 15.707686 -1.765129 -1.447040 -5.723176 4.522498 -1.988141 -0.015237 1.663442 -0.967446 1.034772 0.000000 0.000000 0.000000 5.303173 -2.111197 -20.057988 10.637054 -17.729761 1.663738 24.788266 -0.179101 12.281796 0.000000 0.000000 0.000000 -7.125000 0.000000 0.000000 -1.695595 16.498897 -1.144737 0.000000 0.000000 0.000000 1.327951 1.134584 5.352158 -14.572909 -23.547755 -3.053319 -19.895443 16.476338 62.244715 0.000000 0.000000 0.000000 7.125000 0.000000 0.000000 98.115925 -78.017481 110.376332
16.281749 16.381685 20.774288 174.016778 -2.726076 -154.732060 0.000000 0.000000 0.000000 -25.470541 -18.612330 -18.119037 0.265130 3.312474 9.149948 0.067284 -6.159262 -5.943066 2.661520 -10.125772 -29.384934 0.000000 0.000000 0.000000 13.422555 13.489102 -19.292715 -0.138009 -2.394274 6.596604 -0.986250 3.432241 -17.931813 -0.960318 6.239916 -17.482128 -11.647333 -3.124117 -31.376222 -1.261263 -0.421712 -0.613494 4.608357 -1.295479 15.676277 -1.740350 -1.452376 -5.709388 4.523624 -1.997676 0.048474 1.659341 -0.971025 1.052531 0.000000 0.000000 0.000000 5.260951 -2.125657 -20.279044 10.742673 -17.892682 1.696095 24.757117 -0.232252 12.262002 0.000000 0.000000 0.000000 -7.125000 0.000000 0.000000 -1.716004 16.523811 -1.157621 0.000000 0.000000 0.000000 1.341899 1.184546 5.605747 -14.718275 -23.752051 -3.111674 -21.982646 18.482455 63.535806 0.000000 0.000000 0.000000 7.125000 0.000000 0.000000 106.055641 -77.988310 118.134886
16.281414 16.379637 20.773500 174.041135 -2.687088 -154.723730 0.000000 0.000000 0.000000 -25.444873 -18.616671 -18.118010 0.263227 3.300723 9.117206 0.070768 -6.113734 -5.996464 2.696747 -10.187049 -29.584604 0.000000 0.000000 0.000000 13.439869 13.514055 -19.314846 -0.138886 -2.401677 6.617158 -0.991368 3.466445 -17.974616 -0.983165 6.311158 -17.689974 -11.609051 -3.103498 -31.394087 -1.265973 -0.412057 -0.639303 4.586391 -1.288128 15.652045 -1.685526 -1.476293 -5.708003 4.492181 -2.033306 0.135180 1.638756 -0.987380 1.079643 0.000000 0.000000 0.000000 5.218996 -2.104330 -20.586503 10.865218 -18.081336 1.733874 24.591246 -0.385923 12.208887 0.000000 0.000000 0.000000 -7.125000 0.000000 0.000000 -1.828025 16.599255 -1.230085 0.000000 0.000000 0.000000 1.316170 1.273796 5.972847 -14.868185 -23.962099 -3.172246 -24.212970 20.463044 64.756208 0.000000 0.000000 0.000000 7.125000 0.000000 0.000000 113.608379 -77.736591 125.503741
16.281031 16.378597 20.774276 174.069563 -2.634384 -154.692337 0.000000 0.000000 0.000000 -25.411121 -18.604380 -18.171476 0.262679 3.297439 9.108013 0.073035 -6.083436 -6.031860 2.757654 -10.291389 -29.926128 0.000000 0.000000 0.000000 13.444963 13.577432 -19.363752 -0.139797 -2.409747 6.639548 -0.988151 3.449496 -17.946968 -0.995944 6.350811 -17.805910 -11.578375 -3.084126 -31.444254 -1.256770 -0.394902 -0.647147 4.586479 -1.279904 15.662833 -1.686719 -1.492896 -5.719002 4.484515 -2.055309 0.161005 1.635931 -0.997803 1.090410 0.000000 0.000000 0.000000 5.154364 -2.137981 -20.910816 10.965617 -18.235484 1.765147 24.339790 -0.554328 12.133304 0.000000 0.000000 0.000000 -7.125000 0.000000 0.000000 -1.998240 16.708120 -1.340183 0.000000 0.000000 0.000000 1.252801 1.266935 6.392303 -14.983150 -24.122553 -3.219063 -26.652883 22.514397 65.963282 0.000000 0.000000 0.000000 7.125000 0.000000 0.000000 120.803114 -77.262121 132.519731
